<svg width="25" height="24" viewBox="0 0 25 24" fill="none" xmlns="http://www.w3.org/2000/svg">
<path fill-rule="evenodd" clip-rule="evenodd" d="M5.80367 6.84579C5.78876 6.68077 5.80838 6.51445 5.8613 6.35742C5.91422 6.2004 5.99926 6.05613 6.11102 5.93379C6.22277 5.81145 6.35879 5.71374 6.51039 5.64687C6.662 5.58 6.82587 5.54545 6.99157 5.54541H21.4543C21.6329 5.54549 21.8092 5.58567 21.9703 5.66301C22.1313 5.74034 22.2729 5.85285 22.3846 5.99222C22.4963 6.13159 22.5753 6.29428 22.6158 6.46827C22.6562 6.64226 22.6571 6.82311 22.6183 6.99747L21.3963 12.5058C21.1861 13.4524 20.6593 14.299 19.9029 14.9057C19.1465 15.5124 18.2058 15.843 17.2361 15.8428H10.5092C9.44557 15.8429 8.42033 15.4451 7.63505 14.7276C6.84978 14.0101 6.36127 13.0249 6.26554 11.9655L5.80367 6.84579ZM7.55058 7.24971L7.96302 11.8121C8.02048 12.448 8.31384 13.0394 8.78536 13.4699C9.25689 13.9005 9.87245 14.139 10.511 14.1385H17.2378C17.8195 14.1384 18.3837 13.9399 18.8374 13.5758C19.291 13.2117 19.6069 12.7038 19.7329 12.1359L20.8186 7.24971H7.55058Z" fill="#666666"/>
<path fill-rule="evenodd" clip-rule="evenodd" d="M2.2793 2.68516C2.2793 2.45915 2.36908 2.24241 2.52889 2.0826C2.6887 1.92279 2.90544 1.83301 3.13145 1.83301H6.12079C6.32924 1.83322 6.53037 1.90982 6.68615 2.04832C6.84192 2.18683 6.94153 2.37762 6.96613 2.5846L7.65126 8.38093C7.6777 8.60558 7.61382 8.83153 7.47366 9.00908C7.33351 9.18663 7.12857 9.30123 6.90392 9.32767C6.67927 9.35412 6.45332 9.29023 6.27577 9.15008C6.09822 9.00993 5.98362 8.80499 5.95718 8.58034L5.36238 3.53561H3.13145C2.90544 3.53561 2.6887 3.44582 2.52889 3.28602C2.36908 3.12621 2.2793 2.91116 2.2793 2.68516ZM9.94865 20.2957C10.1747 20.2957 10.3914 20.2059 10.5512 20.0461C10.711 19.8863 10.8008 19.6696 10.8008 19.4436C10.8008 19.2176 10.711 19.0008 10.5512 18.841C10.3914 18.6812 10.1747 18.5914 9.94865 18.5914C9.72265 18.5914 9.5059 18.6812 9.34609 18.841C9.18628 19.0008 9.0965 19.2176 9.0965 19.4436C9.0965 19.6696 9.18628 19.8863 9.34609 20.0461C9.5059 20.2059 9.72265 20.2957 9.94865 20.2957ZM9.94865 22C10.2844 22 10.6168 21.9339 10.927 21.8054C11.2371 21.6769 11.519 21.4886 11.7563 21.2512C11.9937 21.0138 12.182 20.732 12.3105 20.4219C12.439 20.1117 12.5051 19.7793 12.5051 19.4436C12.5051 19.1078 12.439 18.7754 12.3105 18.4652C12.182 18.1551 11.9937 17.8733 11.7563 17.6359C11.519 17.3985 11.2371 17.2102 10.927 17.0817C10.6168 16.9532 10.2844 16.8871 9.94865 16.8871C9.27064 16.8871 8.6204 17.1564 8.14097 17.6359C7.66154 18.1153 7.3922 18.7655 7.3922 19.4436C7.3922 20.1216 7.66154 20.7718 8.14097 21.2512C8.6204 21.7307 9.27064 22 9.94865 22ZM17.7237 20.2957C17.9497 20.2957 18.1664 20.2059 18.3262 20.0461C18.486 19.8863 18.5758 19.6696 18.5758 19.4436C18.5758 19.2176 18.486 19.0008 18.3262 18.841C18.1664 18.6812 17.9497 18.5914 17.7237 18.5914C17.4977 18.5914 17.2809 18.6812 17.1211 18.841C16.9613 19.0008 16.8715 19.2176 16.8715 19.4436C16.8715 19.6696 16.9613 19.8863 17.1211 20.0461C17.2809 20.2059 17.4977 20.2957 17.7237 20.2957ZM17.7237 22C18.0594 22 18.3918 21.9339 18.702 21.8054C19.0122 21.6769 19.294 21.4886 19.5314 21.2512C19.7688 21.0138 19.9571 20.732 20.0855 20.4219C20.214 20.1117 20.2801 19.7793 20.2801 19.4436C20.2801 19.1078 20.214 18.7754 20.0855 18.4652C19.9571 18.1551 19.7688 17.8733 19.5314 17.6359C19.294 17.3985 19.0122 17.2102 18.702 17.0817C18.3918 16.9532 18.0594 16.8871 17.7237 16.8871C17.0457 16.8871 16.3954 17.1564 15.916 17.6359C15.4366 18.1153 15.1672 18.7655 15.1672 19.4436C15.1672 20.1216 15.4366 20.7718 15.916 21.2512C16.3954 21.7307 17.0457 22 17.7237 22Z" fill="#666666"/>
</svg>
