<svg width="21" height="20" viewBox="0 0 21 20" fill="none" xmlns="http://www.w3.org/2000/svg">
<path d="M2.75084 10.9765C2.46619 10.3573 2.46619 9.64288 2.75084 9.02362C4.06842 6.1571 6.96508 4.16675 10.3266 4.16675C13.6881 4.16675 16.5848 6.15711 17.9024 9.02362C18.187 9.64288 18.187 10.3573 17.9024 10.9766C16.5848 13.8431 13.6881 15.8334 10.3266 15.8334C6.96508 15.8334 4.06842 13.8431 2.75084 10.9765Z" stroke="#807D7E" stroke-width="1.5"/>
<path d="M12.8266 10.0001C12.8266 11.3808 11.7073 12.5001 10.3266 12.5001C8.94589 12.5001 7.82661 11.3808 7.82661 10.0001C7.82661 8.61937 8.94589 7.50008 10.3266 7.50008C11.7073 7.50008 12.8266 8.61937 12.8266 10.0001Z" stroke="#807D7E" stroke-width="1.5"/>
</svg>
