<svg width="18" height="18" viewBox="0 0 18 18" fill="none" xmlns="http://www.w3.org/2000/svg">
<path d="M13.1484 1.09766C11.6511 1.09766 10.3385 1.76531 9.35258 3.02847C9.2211 3.19694 9.10389 3.36548 9 3.52871C8.89611 3.36545 8.7789 3.19694 8.64742 3.02847C7.66146 1.76531 6.34887 1.09766 4.85156 1.09766C2.02303 1.09766 0 3.46603 0 6.30795C0 9.55755 2.66333 12.6202 8.63568 16.2382C8.74765 16.306 8.87382 16.3399 9 16.3399C9.12618 16.3399 9.25235 16.306 9.36432 16.2382C15.3367 12.6202 18 9.55759 18 6.30799C18 3.46754 15.9786 1.09766 13.1484 1.09766ZM14.736 10.3543C13.4926 11.7416 11.6137 13.2024 9 14.8129C6.38631 13.2024 4.50738 11.7416 3.26401 10.3543C2.01393 8.95944 1.40625 7.63587 1.40625 6.30799C1.40625 4.26175 2.78909 2.50391 4.85156 2.50391C5.90189 2.50391 6.79746 2.96059 7.51342 3.86129C8.0859 4.58161 8.32711 5.32541 8.3288 5.33072C8.42038 5.62445 8.69235 5.82452 9.00004 5.82452C9.30772 5.82452 9.57969 5.62448 9.67127 5.33072C9.67349 5.32361 9.90745 4.60302 10.4611 3.8937C11.181 2.97148 12.0851 2.50387 13.1484 2.50387C15.2131 2.50387 16.5938 4.26341 16.5938 6.30795C16.5938 7.63584 15.9861 8.9594 14.736 10.3543Z" fill="#A5A5A5"/>
</svg>
