<svg width="13" height="13" viewBox="0 0 13 13" fill="none" xmlns="http://www.w3.org/2000/svg">
<path d="M12.9813 5.00829C12.9365 4.8704 12.8174 4.7699 12.6739 4.74908L8.64387 4.16345L6.84153 0.511607C6.77739 0.381607 6.64498 0.299316 6.50002 0.299316C6.35504 0.299316 6.22266 0.381607 6.15849 0.511607L4.35607 4.16345L0.326087 4.74908C0.182656 4.7699 0.0634476 4.8704 0.0186587 5.00827C-0.0261556 5.14616 0.0112193 5.29752 0.115041 5.3987L3.03109 8.24127L2.34281 12.2551C2.31828 12.398 2.37703 12.5423 2.49431 12.6276C2.56066 12.6758 2.63924 12.7003 2.7182 12.7003C2.77884 12.7003 2.83967 12.6859 2.89538 12.6566L6.5 10.7615L10.1045 12.6565C10.2328 12.724 10.3883 12.7128 10.5056 12.6276C10.6228 12.5423 10.6816 12.3979 10.6571 12.255L9.9686 8.24127L12.885 5.39867C12.9888 5.29752 13.0262 5.14616 12.9813 5.00829Z" fill="#D6D6D6"/>
</svg>
