<svg width="25" height="24" viewBox="0 0 25 24" fill="none" xmlns="http://www.w3.org/2000/svg">
<path d="M12.4902 12.75C9.32023 12.75 6.74023 10.17 6.74023 7C6.74023 3.83 9.32023 1.25 12.4902 1.25C15.6602 1.25 18.2402 3.83 18.2402 7C18.2402 10.17 15.6602 12.75 12.4902 12.75ZM12.4902 2.75C10.1502 2.75 8.24023 4.66 8.24023 7C8.24023 9.34 10.1502 11.25 12.4902 11.25C14.8302 11.25 16.7402 9.34 16.7402 7C16.7402 4.66 14.8302 2.75 12.4902 2.75Z" fill="#666666"/>
<path d="M21.0804 22.75C20.6704 22.75 20.3304 22.41 20.3304 22C20.3304 18.55 16.8104 15.75 12.4904 15.75C8.17039 15.75 4.65039 18.55 4.65039 22C4.65039 22.41 4.31039 22.75 3.90039 22.75C3.49039 22.75 3.15039 22.41 3.15039 22C3.15039 17.73 7.34039 14.25 12.4904 14.25C17.6404 14.25 21.8304 17.73 21.8304 22C21.8304 22.41 21.4904 22.75 21.0804 22.75Z" fill="#666666"/>
</svg>
